<svg width="12" height="11" viewBox="0 0 12 11" fill="none" xmlns="http://www.w3.org/2000/svg">
<path d="M11.625 0H0.374999C0.275543 0 0.18016 0.0395088 0.109835 0.109835C0.0395087 0.180161 0 0.275543 0 0.374999V1.00125C7.01179e-05 1.08982 0.0176677 1.1775 0.0517786 1.25923C0.0858895 1.34097 0.135839 1.41515 0.198749 1.47749L4.49998 5.84248V9.66747L5.24998 9.95247V5.62498C5.25027 5.57563 5.24081 5.52671 5.22215 5.48102C5.20348 5.43533 5.17599 5.39377 5.14123 5.35873L0.749997 0.971247V0.749997H11.25V0.978747L6.87373 5.35873C6.83625 5.39251 6.80598 5.43349 6.78471 5.47924C6.76345 5.52499 6.75163 5.57456 6.74998 5.62498V10.5787L7.49997 10.875V5.81248L11.8012 1.49999C11.8651 1.43607 11.9156 1.36001 11.9498 1.2763C11.9839 1.19259 12.001 1.1029 12 1.0125V0.374999C12 0.275543 11.9605 0.180161 11.8901 0.109835C11.8198 0.0395088 11.7244 0 11.625 0Z" fill="#B0B0B0"/>
</svg>
