<svg width="20" height="18" viewBox="0 0 20 18" fill="none" xmlns="http://www.w3.org/2000/svg">
<path d="M11.1621 3.5586C10.7806 3.51733 10.3929 3.49368 10 3.4878C8.28292 3.49541 6.50295 3.91308 4.81812 4.7134C3.56715 5.3321 2.34857 6.20555 1.29028 7.28296C0.770533 7.83296 0.107183 8.62933 0 9.479C0.0126667 10.215 0.80255 11.1235 1.29028 11.6751C2.28267 12.7102 3.46952 13.5586 4.81812 14.2446C4.86395 14.2669 4.90995 14.2889 4.95605 14.3105L3.70485 16.4956L5.40493 17.5003L14.5952 1.4998L12.9588 0.499664L11.1621 3.5586ZM15.0427 4.64991L13.7939 6.8142C14.3684 7.56056 14.7095 8.48096 14.7095 9.479C14.7095 11.9666 12.6008 13.9834 9.99877 13.9834C9.88628 13.9834 9.77727 13.9713 9.66673 13.9639L8.84032 15.3945C9.22145 15.4353 9.60682 15.4651 9.99998 15.4702C11.7187 15.4625 13.4977 15.04 15.1806 14.2446C16.4316 13.6259 17.6514 12.7525 18.7097 11.6751C19.2295 11.1251 19.8928 10.3287 20 9.479C19.9873 8.74298 19.1974 7.83451 18.7097 7.28295C17.7173 6.24785 16.5292 5.3994 15.1806 4.71336C15.1351 4.6913 15.0885 4.67145 15.0427 4.64991ZM9.99878 4.97463C10.1129 4.97463 10.2261 4.9792 10.3381 4.98683L9.37012 6.66285C8.01155 6.93828 6.99218 8.09418 6.99218 9.4778C6.99218 9.82536 7.0562 10.1581 7.17407 10.4665C7.1742 10.4669 7.17393 10.4674 7.17407 10.4678L6.2036 12.1487C5.62775 11.4016 5.28807 10.4782 5.28807 9.47898C5.28808 6.9914 7.3968 4.97461 9.99878 4.97463ZM12.8149 8.50855L10.6335 12.2878C11.9848 12.0072 12.9968 10.8566 12.9968 9.4778C12.9968 9.13656 12.9287 8.81215 12.8149 8.50855Z" fill="#999999"/>
</svg>
