<svg width="20" height="12" viewBox="0 0 20 12" fill="none" xmlns="http://www.w3.org/2000/svg">
<path d="M12.9974 5.99875C12.9974 7.5876 11.653 8.87562 9.99457 8.87562C8.33617 8.87562 6.99177 7.5876 6.99177 5.99875C6.99177 4.40989 8.33617 3.12189 9.99457 3.12189C11.653 3.12187 12.9974 4.4099 12.9974 5.99875ZM10 0.00868607C8.28292 0.0163027 6.5031 0.43432 4.81827 1.23464C3.5673 1.85334 2.34817 2.72624 1.2899 3.80365C0.770133 4.35364 0.107183 5.15 0 5.99969C0.0126667 6.7357 0.802167 7.64417 1.2899 8.19574C2.28228 9.23084 3.46967 10.0794 4.81827 10.7654C6.38945 11.5279 8.12853 11.9669 10 11.9913C11.7187 11.9836 13.4981 11.5608 15.1811 10.7654C16.4321 10.1467 17.6518 9.27315 18.7101 8.19574C19.2299 7.64575 19.8928 6.84937 20 5.99969C19.9873 5.26367 19.1978 4.35517 18.7101 3.80362C17.7177 2.76852 16.5297 1.92064 15.1811 1.2346C13.6107 0.472669 11.8674 0.0366694 10 0.00868607ZM9.99873 1.49615C12.6007 1.49615 14.71 3.51272 14.71 6.00034C14.71 8.48794 12.6007 10.5045 9.99873 10.5045C7.39675 10.5045 5.28748 8.48792 5.28748 6.00034C5.28748 3.51272 7.39675 1.49615 9.99873 1.49615Z" fill="#999999"/>
</svg>
